<?xml version="1.0" encoding="UTF-8" standalone="no"?>
<svg
   width="1600"
   height="512"
   viewBox="0 0 1600 512"
   role="img"
   aria-labelledby="title desc"
   version="1.1"
   id="svg32"
   xmlns="http://www.w3.org/2000/svg"
   xmlns:svg="http://www.w3.org/2000/svg">
  <defs
     id="defs36" />
  <title
     id="title">JusticeOS</title>
  <desc
     id="desc">JusticeOS wizard and terminal logo for dark backgrounds</desc>
  <g
     transform="translate(16)"
     id="g26">
    <path
       fill="#6c43f3"
       d="m 78,211 c 37,-66 86,-128 162,-174 13,-8 29,-6 40,4 l 85,77 c -31,-4 -61,-14 -89,-28 3,42 20,77 54,111 -43,-16 -83,-24 -121,-22 -48,2 -91,17 -131,32 z"
       id="path4" />
    <path
       fill="#6c43f3"
       d="m 48,228 c 58,-30 115,-45 170,-44 61,1 119,21 177,58 -50,20 -101,17 -151,-8 -28,-14 -57,-15 -87,-2 -39,17 -75,16 -109,-4 z"
       id="path6" />
    <path
       fill="#4fdcf7"
       d="m 348,100 9,20 20,9 -20,9 -9,20 -9,-20 -20,-9 20,-9 z"
       id="path8" />
    <path
       fill="#fff9ed"
       d="m 142,224 c -12,28 -14,60 -4,88 7,18 19,35 35,49 -3,-30 4,-56 22,-78 -22,-8 -39,-28 -53,-59 z"
       id="path10" />
    <path
       fill="#fff9ed"
       d="m 296,224 c 12,28 14,60 4,88 -7,18 -19,35 -35,49 3,-30 -4,-56 -22,-78 22,-8 39,-28 53,-59 z"
       id="path12" />
    <path
       fill="#fff9ed"
       d="m 174,270 c 18,-20 38,-21 59,-2 -11,22 -28,34 -51,35 -16,0 -28,-6 -38,-17 13,0 23,-5 30,-16 z"
       id="path14" />
    <path
       fill="#fff9ed"
       d="m 264,270 c -18,-20 -38,-21 -59,-2 11,22 28,34 51,35 16,0 28,-6 38,-17 -13,0 -23,-5 -30,-16 z"
       id="path16" />
    <path
       fill="#fff9ed"
       d="m 181,296 c 18,14 36,15 55,2 19,13 37,12 55,-2 13,43 -2,102 -55,165 -53,-63 -68,-122 -55,-165 z"
       id="path18" />
    <path
       fill="#fff9ed"
       d="m 177,309 c -12,30 -13,60 -2,90 -25,-19 -39,-46 -42,-80 16,4 31,1 44,-10 z"
       id="path20" />
    <path
       fill="#fff9ed"
       d="m 295,309 c 12,30 13,60 2,90 25,-19 39,-46 42,-80 -16,4 -31,1 -44,-10 z"
       id="path22" />
    <path
       fill="#171b24"
       d="m 193,337 12,-12 31,31 -31,31 -12,-12 19,-19 z m 51,31 h 42 v 17 h -42 z"
       id="path24" />
  </g>
  <g
     aria-label="JusticeOS"
     id="text30"
     style="font-weight:700;font-size:198px;font-family:'Nimbus Sans', Arial, sans-serif;letter-spacing:-7;fill:#fff9ed">
    <path
       d="M 566.528,199.658 V 306.38 c 0,10.89 -5.742,16.83 -16.038,16.83 -11.286,0 -16.038,-5.544 -16.038,-18.81 v -13.86 h -29.7 v 14.256 c 0,15.048 3.564,24.354 12.078,32.274 8.316,7.524 19.404,11.484 33.066,11.484 29.502,0 46.332,-15.246 46.332,-42.174 V 199.658 Z"
       id="path38" />
    <path
       d="M 710.20595,344 V 237.08 h -27.72 v 66.924 c 0,12.672 -8.712,20.988 -22.374,20.988 -11.88,0 -17.82,-6.336 -17.82,-19.206 V 237.08 h -27.72 v 74.448 c 0,23.76 12.87,37.026 35.838,37.026 14.454,0 24.156,-5.148 32.076,-17.226 V 344 Z"
       id="path40" />
    <path
       d="m 817.05596,271.532 c -0.396,-22.572 -17.82,-36.234 -46.53,-36.234 -27.126,0 -43.956,13.662 -43.956,35.64 0,7.128 2.178,13.266 5.94,17.424 3.762,3.762 7.128,5.544 17.424,8.91 l 33.066,10.296 c 6.93,2.178 9.306,4.356 9.306,8.712 0,6.534 -7.722,10.494 -20.592,10.494 -7.326,0 -12.87,-1.188 -16.434,-3.762 -2.97,-2.178 -4.158,-4.356 -5.346,-10.098 h -27.126 c 0.792,23.562 18.018,35.64 50.49,35.64 14.85,0 26.136,-3.168 34.056,-9.504 7.92,-6.336 12.672,-16.236 12.672,-26.73 0,-13.86 -6.93,-22.77 -20.988,-26.928 l -35.046,-10.098 c -7.722,-2.376 -9.702,-3.96 -9.702,-8.316 0,-5.94 6.336,-9.9 16.038,-9.9 13.266,0 19.8,4.752 19.998,14.454 z"
       id="path42" />
    <path
       d="m 879.55402,239.258 h -15.444 v -28.71 h -27.72 v 28.71 h -13.662 v 18.414 h 13.662 v 65.736 c 0,16.83 8.91,25.146 27.126,25.146 6.336,0 10.89,-0.594 16.038,-2.178 v -19.404 c -2.772,0.396 -4.158,0.594 -6.336,0.594 -7.326,0 -9.108,-2.178 -9.108,-11.682 v -58.212 h 15.444 z"
       id="path44" />
    <path
       d="m 919.4799,237.08 h -27.72 V 344 h 27.72 z m 0,-37.422 h -27.72 v 24.75 h 27.72 z"
       id="path46" />
    <path
       d="m 1029.8939,277.076 c -1.98,-26.136 -19.206,-41.778 -46.13403,-41.778 -32.076,0 -50.49,20.988 -50.49,57.42 0,35.244 18.414,55.836 50.094,55.836 25.93803,0 43.95603,-16.038 46.53003,-41.58 h -26.532 c -3.36603,13.86 -8.91003,19.206 -19.99803,19.206 -14.058,0 -22.374,-12.474 -22.374,-33.462 0,-10.296 1.98,-19.602 5.346,-25.938 3.168,-5.94 9.306,-9.108 17.226,-9.108 11.286,0 16.63203,5.346 19.80003,19.404 z"
       id="path48" />
    <path
       d="m 1134.7638,299.252 c 0.198,-2.376 0.198,-3.366 0.198,-4.752 0,-10.692 -1.584,-20.592 -4.158,-28.116 -7.128,-19.404 -24.354,-31.086 -45.936,-31.086 -30.69,0 -49.5,22.176 -49.5,58.014 0,34.254 18.612,55.242 48.906,55.242 23.958,0 43.362,-13.464 49.5,-34.65 h -27.324 c -3.366,8.514 -11.088,13.464 -21.186,13.464 -7.92,0 -14.256,-3.366 -18.216,-9.306 -2.574,-3.96 -3.564,-8.712 -3.96,-18.81 z m -71.28,-18.414 c 1.782,-16.434 8.712,-24.354 20.988,-24.354 12.672,0 20.196,8.514 21.582,24.354 z"
       id="path50" />
    <path
       d="m 1211.3198,197.282 c -20.196,0 -36.828,6.732 -49.104,19.998 -12.87,13.86 -20.196,34.056 -20.196,55.638 0,21.582 7.326,41.976 20.196,55.638 12.474,13.464 28.71,19.998 49.302,19.998 20.592,0 36.828,-6.534 49.302,-19.998 12.474,-13.266 20.196,-34.254 20.196,-54.648 0,-22.572 -7.326,-42.966 -20.196,-56.628 -12.672,-13.662 -28.512,-19.998 -49.5,-19.998 z m 0.198,25.344 c 24.354,0 39.798,19.8 39.798,51.084 0,29.7 -16.038,49.5 -39.798,49.5 -24.156,0 -39.798,-19.8 -39.798,-50.292 0,-30.492 15.642,-50.292 39.798,-50.292 z"
       style="fill:#6c43f3"
       id="path52" />
    <path
       d="m 1401.1319,243.614 c -0.198,-29.898 -20.196,-46.332 -56.628,-46.332 -34.65,0 -54.648,16.236 -54.648,44.352 0,22.374 11.286,33.264 40.59,38.808 l 20.196,3.96 c 19.8,3.762 27.126,9.306 27.126,20.988 0,12.078 -11.088,19.404 -29.106,19.404 -20.196,0 -31.482,-8.514 -32.472,-23.958 h -28.908 c 1.782,30.888 22.968,47.718 59.796,47.718 37.224,0 59.202,-17.226 59.202,-46.728 0,-22.77 -11.484,-34.65 -38.214,-39.798 l -22.572,-4.356 c -21.186,-4.158 -27.324,-8.316 -27.324,-18.81 0,-10.89 9.504,-17.82 24.948,-17.82 18.81,0 29.304,7.92 30.294,22.572 z"
       style="fill:#6c43f3"
       id="path54" />
  </g>
</svg>
